<svg id="a43bf0ee-23c5-49e4-a2e1-44df488c57d7" data-name="Layer 1" xmlns="http://www.w3.org/2000/svg" width="865.76" height="682.89" viewBox="0 0 865.76 682.89"><g id="a5477d3f-9a29-413d-94d6-780d7d9cd355" data-name="freepik--background-complete--inject-2"><rect x="35" y="593.59" width="830.76" height="0.42" fill="#e0e0e0"/><rect x="578.69" y="614.52" width="17.41" height="0.42" fill="#e0e0e0"/><rect x="142.89" y="603.62" width="29.66" height="0.42" fill="#e0e0e0"/><rect x="282.95" y="614.32" width="50.94" height="0.42" fill="#e0e0e0"/><rect x="400.69" y="604.84" width="75.18" height="0.42" fill="#e0e0e0"/><rect x="685.39" y="607.48" width="89.64" height="0.42" fill="#e0e0e0"/><rect x="180.57" y="603.62" width="58.72" height="0.42" fill="#e0e0e0"/><rect x="784.71" y="607.68" width="24.87" height="0.42" fill="#e0e0e0"/><path d="M428.78,519.48H108A9.49,9.49,0,0,1,98.49,510V59a9.48,9.48,0,0,1,9.47-9.4H428.78a9.48,9.48,0,0,1,9.49,9.48h0V510A9.48,9.48,0,0,1,428.78,519.48ZM108,49.94a9.07,9.07,0,0,0-9,9.07V510a9.07,9.07,0,0,0,9,9.07H428.78a9.1,9.1,0,0,0,9.08-9.07V59a9.09,9.09,0,0,0-9.08-9.07Z" fill="#e0e0e0"/><path d="M788.19,519.48H467.35a9.5,9.5,0,0,1-9.49-9.48V59a9.5,9.5,0,0,1,9.49-9.4H788.19a9.48,9.48,0,0,1,9.45,9.4V510A9.48,9.48,0,0,1,788.19,519.48ZM467.35,49.94A9.08,9.08,0,0,0,458.28,59V510a9.09,9.09,0,0,0,9.07,9.07H788.19a9.09,9.09,0,0,0,9.07-9.07V59a9.09,9.09,0,0,0-9.07-9.07Z" fill="#e0e0e0"/><path d="M268.33,152.62A81.4,81.4,0,0,1,158,228.68a81.41,81.41,0,0,0,0-152.07,81.4,81.4,0,0,1,110.37,76Z" fill="#f5f5f5"/><path d="M212.79,99.8a13.76,13.76,0,0,1,.84,11.76,34.12,34.12,0,0,0-3.82-10.08,35.79,35.79,0,0,0-6.64-8.54A13.83,13.83,0,0,1,212.79,99.8Z" fill="#e6e6e6"/><path d="M253,135.54a13.82,13.82,0,0,1-7.61,9,35.16,35.16,0,0,0,4.32-10,36,36,0,0,0,1.21-10.74A13.84,13.84,0,0,1,253,135.54Z" fill="#e6e6e6"/><path d="M247.91,189.17a13.75,13.75,0,0,1-11,4.17,35,35,0,0,0,8.57-6.54,35.8,35.8,0,0,0,6.26-8.79A13.8,13.8,0,0,1,247.91,189.17Z" fill="#e6e6e6"/><path d="M210.71,216.42a13.81,13.81,0,0,1-11,4.19,36,36,0,0,0,14.84-15.35A13.77,13.77,0,0,1,210.71,216.42Z" fill="#e6e6e6"/><path d="M230.35,162.22a13.82,13.82,0,0,1-7.16,9.36,36.29,36.29,0,0,0,4.55-20.85A13.67,13.67,0,0,1,230.35,162.22Z" fill="#e6e6e6"/><path d="M663.42,208.36a2.49,2.49,0,0,1-2.27-1.47c-4.72-10.67,21.9-29.15,50.62-41.88s60.3-20,65-9.38a2.5,2.5,0,0,1-4.57,2h0c-2.11-4.75-25.92-2.49-58.44,11.93s-50.21,30.52-48.18,35.29a2.47,2.47,0,0,1-1.2,3.29l-.07,0A2.44,2.44,0,0,1,663.42,208.36Z" fill="#f5f5f5"/><circle cx="718.97" cy="181.25" r="42.78" fill="#e6e6e6"/><path d="M673.66,212.07c-6.78,0-11-1.66-12.51-5.18a2.51,2.51,0,0,1,1.26-3.32h0a2.48,2.48,0,0,1,3.29,1.19l0,.07c.66,1.5,5.18,3.43,18,1.23a181.68,181.68,0,0,0,40.49-13.14c32.47-14.37,50.18-30.5,48-35.31a2.5,2.5,0,1,1,4.57-2c4.71,10.67-21.9,29.15-50.63,41.87A187.4,187.4,0,0,1,684.51,211,64.79,64.79,0,0,1,673.66,212.07Z" fill="#f5f5f5"/><path d="M652.91,79.41l1.41,2.84a1.1,1.1,0,0,0,.85.62l3.14.46a1.14,1.14,0,0,1,1,1.28,1.13,1.13,0,0,1-.33.65l-2.28,2.23a1.09,1.09,0,0,0-.31,1l.53,3.12a1.14,1.14,0,0,1-.9,1.32,1.18,1.18,0,0,1-.76-.12l-2.81-1.48a1.19,1.19,0,0,0-1.07,0l-2.8,1.48a1.14,1.14,0,0,1-1.54-.44,1.12,1.12,0,0,1-.12-.76l.53-3.12a1.07,1.07,0,0,0-.34-1l-2.29-2.23a1.14,1.14,0,0,1,0-1.6,1.26,1.26,0,0,1,.65-.33l3.14-.46a1.1,1.1,0,0,0,.85-.62l1.41-2.84a1.15,1.15,0,0,1,1.48-.62A1.17,1.17,0,0,1,652.91,79.41Z" fill="#f5f5f5"/><path d="M134.91,359l1.45,2.85a1.18,1.18,0,0,0,.84.63l3.14.45a1.14,1.14,0,0,1,1,1.31,1.16,1.16,0,0,1-.32.63L138.7,367a1.12,1.12,0,0,0-.32,1l.54,3.14a1.13,1.13,0,0,1-1.67,1.19l-2.8-1.48a1.13,1.13,0,0,0-1.07,0l-2.81,1.48a1.13,1.13,0,0,1-1.66-1.19l.53-3.14a1.12,1.12,0,0,0-.31-1l-2.28-2.21a1.14,1.14,0,0,1,0-1.62,1.09,1.09,0,0,1,.63-.32l3.14-.45a1.2,1.2,0,0,0,.85-.63l1.41-2.85a1.13,1.13,0,0,1,2,0Z" fill="#e6e6e6"/><path d="M539.39,482.93l1.4,2.84a1.11,1.11,0,0,0,.86.62l3.14.46a1.14,1.14,0,0,1,1,1.29,1.2,1.2,0,0,1-.33.64L543.15,491a1.12,1.12,0,0,0-.34,1l.54,3.14a1.13,1.13,0,0,1-.9,1.32,1.15,1.15,0,0,1-.77-.12l-2.8-1.48a1.09,1.09,0,0,0-1,0L535,496.34a1.15,1.15,0,0,1-1.55-.49,1.25,1.25,0,0,1-.12-.71l.55-3.14a1.15,1.15,0,0,0-.33-1l-2.28-2.23a1.14,1.14,0,0,1,0-1.6,1.19,1.19,0,0,1,.65-.33l3.14-.46a1.15,1.15,0,0,0,.87-.62l1.39-2.84a1.16,1.16,0,0,1,1.53-.55A1.13,1.13,0,0,1,539.39,482.93Z" fill="#e6e6e6"/><path d="M519.24,14.6l.84,1.66a.66.66,0,0,0,.5.36l1.88.27a.69.69,0,0,1,.58.77.64.64,0,0,1-.2.39l-1.36,1.33a.64.64,0,0,0-.18.6l.31,1.86a.66.66,0,0,1-.51.79.69.69,0,0,1-.47-.07L519,21.68a.64.64,0,0,0-.63,0l-1.66.88a.69.69,0,0,1-.92-.3.76.76,0,0,1-.06-.42L516,20a.71.71,0,0,0-.2-.6l-1.36-1.33a.67.67,0,0,1,0-1,.64.64,0,0,1,.39-.2l1.88-.27a.66.66,0,0,0,.5-.36l.84-1.66a.69.69,0,0,1,.94-.23A.72.72,0,0,1,519.24,14.6Z" fill="#e6e6e6"/><path d="M223.79,308.47l.84,1.66a.68.68,0,0,0,.5.37l1.88.28a.67.67,0,0,1,.59.73.68.68,0,0,1-.21.42L226,313.26a.62.62,0,0,0-.18.59l.31,1.88a.68.68,0,0,1-.56.78.75.75,0,0,1-.42-.06l-1.66-.88a.6.6,0,0,0-.63,0l-1.66.88a.69.69,0,0,1-.93-.28.67.67,0,0,1-.07-.44l.33-1.88a.68.68,0,0,0-.2-.59L219,311.93a.66.66,0,0,1,0-.94.65.65,0,0,1,.41-.21l1.88-.28a.66.66,0,0,0,.5-.37l.85-1.66a.65.65,0,0,1,.89-.28A.71.71,0,0,1,223.79,308.47Z" fill="#f5f5f5"/><path d="M138.93,467.16l.83,1.66a.7.7,0,0,0,.52.39l1.88.26a.68.68,0,0,1,.56.78.62.62,0,0,1-.2.38L141.17,472a.65.65,0,0,0-.19.6l.36,1.9a.65.65,0,0,1-.51.78.64.64,0,0,1-.47-.07l-1.66-.88a.7.7,0,0,0-.63,0l-1.66.88a.67.67,0,0,1-.91-.25.62.62,0,0,1-.07-.46l.31-1.86a.64.64,0,0,0-.2-.6l-1.36-1.33a.68.68,0,0,1,.38-1.16l1.88-.27a.71.71,0,0,0,.51-.38l.84-1.66a.69.69,0,0,1,1-.21A1,1,0,0,1,138.93,467.16Z" fill="#f5f5f5"/><path d="M730.82,467.41l.84,1.66a.69.69,0,0,0,.52.37l1.88.26a.68.68,0,0,1,.56.78.67.67,0,0,1-.2.39l-1.35,1.33a.64.64,0,0,0-.19.59l.31,1.87a.65.65,0,0,1-.51.78.64.64,0,0,1-.47-.07l-1.66-.88a.7.7,0,0,0-.63,0l-1.66.88a.69.69,0,0,1-.93-.27.68.68,0,0,1-.07-.44l.33-1.87a.63.63,0,0,0-.2-.59L726,470.87a.68.68,0,0,1,0-1,.77.77,0,0,1,.39-.2l1.88-.26a.68.68,0,0,0,.51-.37l.84-1.66a.68.68,0,0,1,.93-.25A.75.75,0,0,1,730.82,467.41Z" fill="#e6e6e6"/><circle cx="320.77" cy="65.91" r="2.21" fill="#e6e6e6"/><path d="M550.37,92.94A2.21,2.21,0,0,1,546,93a2.23,2.23,0,0,1,2.2-2.23h0A2.21,2.21,0,0,1,550.37,92.94Z" fill="#f5f5f5"/><circle cx="309.45" cy="266.15" r="2.21" fill="#f5f5f5"/><path d="M239.09,432.19a2.21,2.21,0,1,1-2.23-2.2h0a2.2,2.2,0,0,1,2.19,2.2Z" fill="#f5f5f5"/><circle cx="700.16" cy="299.38" r="2.21" fill="#e6e6e6"/></g><g id="f0f8e1ed-8308-47c9-a941-5745b8a4e810" data-name="freepik--Shadow--inject-2"><ellipse cx="450.38" cy="649.81" rx="322.15" ry="18.81" fill="#f5f5f5"/></g><path d="M306.6,157.16a2.76,2.76,0,0,1-2.75-2.77,2.32,2.32,0,0,1,0-.46l.91-5.26a1.15,1.15,0,0,0-.31-1L300.65,144a2.73,2.73,0,0,1,1.53-4.68l5.3-.77a1.1,1.1,0,0,0,.81-.59l2.36-4.81a2.76,2.76,0,0,1,5,0l2.36,4.81a1.13,1.13,0,0,0,.83.59l5.29.82a2.74,2.74,0,0,1,1.53,4.68l-3.89,3.63a1.07,1.07,0,0,0-.3,1l.9,5.27a2.74,2.74,0,0,1-2.23,3.17,2.82,2.82,0,0,1-1.76-.28l-4.74-2.5a1.06,1.06,0,0,0-1,0l-4.73,2.48A2.81,2.81,0,0,1,306.6,157.16Zm6.53-23.91a1,1,0,0,0-1,.59l-2.38,4.81a2.78,2.78,0,0,1-2.06,1.51l-5.3.76a1.1,1.1,0,0,0-.92,1.23,1.16,1.16,0,0,0,.32.62l3.84,3.74a2.75,2.75,0,0,1,.78,2.44l-.9,5.26a1.09,1.09,0,0,0,.88,1.26,1.07,1.07,0,0,0,.68-.11l4.76-2.49a2.72,2.72,0,0,1,2.54,0l4.75,2.49a1.08,1.08,0,0,0,1.49-.33,1.1,1.1,0,0,0,.16-.75l-.9-5.27a2.8,2.8,0,0,1,.78-2.44l3.84-3.74a1.07,1.07,0,0,0-.6-1.84l-5.3-.77a2.7,2.7,0,0,1-2.06-1.51l-2.41-4.87A1,1,0,0,0,313.13,133.25Z" fill="#d1d3d4"/><path d="M401.62,108.57l.48,10.25a3.66,3.66,0,0,0,1.66,3l8.71,5.41a3.68,3.68,0,0,1-.65,6.55l-9.59,3.62a3.63,3.63,0,0,0-2.26,2.54l-2.46,10a3.67,3.67,0,0,1-6.43,1.43l-6.41-8a3.58,3.58,0,0,0-3.12-1.36l-10.22.73A3.67,3.67,0,0,1,368,137l5.63-8.57a3.62,3.62,0,0,0,.33-3.32l-3.85-9.51a3.67,3.67,0,0,1,1.93-4.82,3.72,3.72,0,0,1,2.42-.16l9.88,2.71a3.7,3.7,0,0,0,3.33-.73l7.84-6.65a3.68,3.68,0,0,1,6.1,2.64Z" fill="#d1d3d4"/><path d="M613.43,285.34a4.53,4.53,0,0,1-4.49-4.61v-.21l.7-10.23a2.81,2.81,0,0,0-1.06-2.41l-8-6.38a4.51,4.51,0,0,1-.74-6.33,4.46,4.46,0,0,1,2.4-1.56l10-2.5a2.72,2.72,0,0,0,2-1.76l3.59-9.6a4.5,4.5,0,0,1,8-.81l5.45,8.69a2.78,2.78,0,0,0,2.27,1.32l10.25.45a4.51,4.51,0,0,1,3.33,7.38l-6.65,7.86a2.84,2.84,0,0,0-.61,2.62l2.74,9.89a4.5,4.5,0,0,1-6,5.38L627,278.7a2.85,2.85,0,0,0-2.63.26l-8.54,5.67A4.5,4.5,0,0,1,613.43,285.34ZM622,238.49h-.3a2.78,2.78,0,0,0-2.38,1.82l-3.59,9.61a4.45,4.45,0,0,1-3.12,2.79l-10,2.49a2.85,2.85,0,0,0-1.08,5l8,6.38a4.47,4.47,0,0,1,1.67,3.82l-.7,10.23a2.78,2.78,0,0,0,1.39,2.65,2.83,2.83,0,0,0,3,0l8.56-5.67a4.47,4.47,0,0,1,4.15-.43l9.53,3.84a2.84,2.84,0,0,0,3.78-3.33l-2.74-9.88a4.48,4.48,0,0,1,.88-4.09l6.65-7.86a2.86,2.86,0,0,0-2.06-4.67l-10.24-.43a4.54,4.54,0,0,1-3.62-2.11L624.38,240a2.79,2.79,0,0,0-2.39-1.46Z" fill="#d1d3d4"/><path d="M620.81,352.55l-1.15,5.17a1.86,1.86,0,0,0,.47,1.64l3.61,3.88a1.9,1.9,0,0,1-.1,2.68,2,2,0,0,1-1.12.5l-5.27.5a1.94,1.94,0,0,0-1.47,1l-2.57,4.63a1.89,1.89,0,0,1-2.63.6,1.86,1.86,0,0,1-.7-.77l-2.1-4.9a2,2,0,0,0-1.38-1.11l-5.19-1a1.9,1.9,0,0,1-.91-3.29l4-3.49a1.87,1.87,0,0,0,.61-1.69l-.63-5.26a1.88,1.88,0,0,1,1.75-2,1.83,1.83,0,0,1,1.08.24l4.57,2.69a1.94,1.94,0,0,0,1.77.09l4.8-2.24a1.9,1.9,0,0,1,2.58,2.2Z" fill="#d1d3d4"/><path d="M311.13,359.63l-.93,3.47a1.31,1.31,0,0,0,.27,1.16l2.34,2.7a1.29,1.29,0,0,1-.16,1.82,1.24,1.24,0,0,1-.75.3l-3.59.2a1.25,1.25,0,0,0-1,.62L305.42,373a1.29,1.29,0,0,1-1.76.45,1.38,1.38,0,0,1-.54-.65l-1.29-3.32a1.29,1.29,0,0,0-.9-.8l-3.49-.83a1.27,1.27,0,0,1-.51-2.24l2.77-2.26a1.28,1.28,0,0,0,.48-1.1l-.3-3.58a1.3,1.3,0,0,1,1.21-1.39,1.26,1.26,0,0,1,.79.21l3,1.94a1.31,1.31,0,0,0,1.2.12l3.32-1.38a1.28,1.28,0,0,1,1.73,1.51Z" fill="#d1d3d4"/><path d="M624.61,435.43c-41.69,0-85.72-17.05-113.25-46.18-27.78-29.41-35.22-66.59-20.95-104.67l6.21,2.32c-13.29,35.61-6.38,70.34,19.58,97.8,35,37.09,98,53.68,146.46,38.6,53.63-16.62,74.44-56.19,94.56-94.41,22.53-42.8,43.74-83.23,108.54-83.23v6.65c-60.71,0-80.15,36.92-102.66,79.67-19.79,37.57-42.2,80.15-98.46,97.65A135,135,0,0,1,624.61,435.43Z" fill="#ccc"/><path d="M479,239.8l-2.24.88-2.08.78-4.15,1.41c-2.78.92-5.57,1.67-8.31,2.48a151.68,151.68,0,0,1-17.41,3.54,103.36,103.36,0,0,1-18.93,1,65,65,0,0,1-10.58-1.4,61.47,61.47,0,0,1-10.35-3.32c-13-5.73-22.32-14.79-29.69-24.24a111,111,0,0,1-9.67-15c-1.38-2.59-2.7-5.16-3.87-7.82-.6-1.33-1.17-2.68-1.67-4s-1-2.68-1.57-4.29l14.75-7.29,2.24,2.82c.8,1,1.58,2,2.41,2.93,1.66,1.94,3.32,3.85,5,5.69a126.24,126.24,0,0,0,10.45,10.37,78.43,78.43,0,0,0,11.05,8.31,59,59,0,0,0,5.58,3,38.31,38.31,0,0,0,5.52,2,26.14,26.14,0,0,0,10.66.93,89,89,0,0,0,13.19-2c4.62-1,9.36-2.22,14.08-3.62,2.37-.65,4.73-1.4,7.09-2.13l4.16-1.51Z" fill="#ffffff"/><path d="M464.44,209.41s-29.54,29-40.64,100.46l70.85,28c4.25-9.39,15-57.36,43.2-98.32a113.33,113.33,0,0,0-21.7-13.42A322.22,322.22,0,0,0,486,214.21,162,162,0,0,0,464.44,209.41Z" fill="#ffffff"/><path d="M521.28,193.61c-5,7.88-12.89,22.83-9.17,30.89,0,0-2,3.54-16.45-2.2-11.76-4.68-10.05-8.3-10.05-8.3,10.4,1.48,12.94-5.67,13.91-13Z" fill="#f9b499"/><path d="M512.41,196.67l-12.88,4.4a30.21,30.21,0,0,1-1,5c3.84.9,10.41-1.11,12.3-4.76A14.08,14.08,0,0,0,512.41,196.67Z" fill="#f7a48b"/><path d="M513.52,152.62c-6.64-1-19.94,14.16-15.32,21.6S526.07,154.51,513.52,152.62Z" fill="#263238"/><path d="M527.73,184.5c-7.76,9.74-11.8,15.82-20.59,17.43-13.29,2.45-22.51-11-17.83-22.86,4.22-10.67,16.2-24.79,29-21.85a17,17,0,0,1,9.42,27.28Z" fill="#f9b499"/><path d="M520,194c-6.91-1.57-2.5-27.72,15.36-22.9C557,176.91,531.22,196.48,520,194Z" fill="#263238"/><path d="M535.9,177.92c-8.31-3.07-31.08-14.68-26.91-28.72,2-6.83,15.08-5.75,24.14-.92-14.71.53-7.33,7.53,2.29,10.55C551.07,163.75,547,182.08,535.9,177.92Z" fill="#263238"/><path d="M538.05,174.39s8.83-1.17,7,6.86A10,10,0,0,0,538.05,174.39Z" fill="#263238"/><path d="M538.44,173.65s5.4,7.08,9.81.14A10.1,10.1,0,0,1,538.44,173.65Z" fill="#263238"/><path d="M524.45,198.93a11.84,11.84,0,0,1-9,0c-3.84-1.67-3.19-5.64,0-7.91,2.89-2.05,8.31-3.67,11.17-.77S528,197.48,524.45,198.93Z" fill="#f9b499"/><path d="M423.8,309.87s-55.63,41.88-73,76c-18,35.47-34.95,107.4-34.95,107.4l26.37,9.57s22.05-61.06,42.09-94.59c21.85-36.55,58.05-44.94,86.08-80Z" fill="#ffffff"/><path d="M449,319.79S412.43,379.37,407.45,416c-5.4,40.11,7.43,115.58,7.43,115.58l26.25-6.3s-6.28-54.71,2.86-92.94c10-41.54,39.11-65.28,50.66-94.49Z" fill="#ffffff"/><path d="M537.91,239.53l1.1,1.08,1.25,1.67,2.37,3.32c1.51,2.22,3,4.47,4.39,6.76s2.74,4.64,4,7,2.49,4.82,3.67,7.29a120.59,120.59,0,0,1,6.08,15.67c.43,1.35.81,2.76,1.16,4.19l.55,2.13.13.53.17.76.33,1.51a44.24,44.24,0,0,1,.65,10.84,78.21,78.21,0,0,1-3.32,17.49,132.09,132.09,0,0,1-5.67,15.2c-2.13,4.86-4.49,9.51-7,14.06a133.54,133.54,0,0,1-8.31,13.29L524.75,355c2.53-9.12,5.15-18.57,7.13-27.66.93-4.57,1.85-9.07,2.36-13.41.27-2.19.45-4.29.6-6.31a48.24,48.24,0,0,0,0-5.64,16.93,16.93,0,0,0-.8-3.93l-.11-.29v-.15l-.15-.33-.6-1.41c-.4-.93-.8-1.88-1.28-2.83a128,128,0,0,0-6.07-11.46c-1.09-1.93-2.24-3.84-3.45-5.75s-2.38-3.82-3.64-5.71-2.49-3.79-3.76-5.67l-3.62-5.35Z" fill="#ffffff"/><circle cx="512.79" cy="182.34" r="47.47" transform="translate(-30.35 217.04) rotate(-23.23)" fill="#ffffff" opacity="0.19" style="isolation:isolate"/><polygon points="444.63 530.65 412.45 538.91 410.07 507.31 441.43 503.37 444.63 530.65" fill="#ffffff"/><path d="M414.11,532.26l27.52-6.15a1.8,1.8,0,0,1,2,1.07l7.21,17.11a3,3,0,0,1-1.65,3.92,2.45,2.45,0,0,1-.64.18c-7.9,1.3-11.8,1.53-21.7,3.33-6.1,1.11-18.56,4-27,5.56s-10.8-6.11-7.73-8c11.29-6.88,14.84-9.89,19-15.24A5,5,0,0,1,414.11,532.26Z" fill="#ffffff"/><polygon points="341.75 507.74 309.45 499.89 320.15 471.02 351.74 482.15 341.75 507.74" fill="#ffffff"/><path d="M314.14,494.89l27.16,7.53a1.75,1.75,0,0,1,1.23,1.84l-1.66,18.5a3,3,0,0,1-3.26,2.69,2.75,2.75,0,0,1-.69-.15c-7.58-2.56-11.13-4.19-20.74-7.26-5.9-1.88-18.27-5.15-26.4-7.76s-6.64-10.47-3.07-10.67c13.19-.76,17.74-1.74,23.91-4.52A5,5,0,0,1,314.14,494.89Z" fill="#ffffff"/><path d="M495.24,342.93c-47.45-12.58-75.41-29.91-76.57-30.62l5.28-8.46c.26.18,28,17.28,73.85,29.44Z" fill="#ffffff"/><path d="M495.24,342.93c-47.45-12.58-75.41-29.91-76.57-30.62l5.28-8.46c.26.18,28,17.28,73.85,29.44Z" opacity="0.2" style="isolation:isolate"/><path d="M473.18,278.53a15,15,0,0,1-5.85-1.16c-9.27-3.87-12.93-16.3-8.17-27.73a25.15,25.15,0,0,1,11-12.6A15.9,15.9,0,0,1,494,247a25.26,25.26,0,0,1-1.18,16.62h0a25.19,25.19,0,0,1-11,12.59A18,18,0,0,1,473.18,278.53Zm5.57-43.37a17.53,17.53,0,0,0-8.31,2.25,24.74,24.74,0,0,0-10.83,12.39c-4.67,11.22-1.1,23.41,7.95,27.18a16.15,16.15,0,0,0,14.08-1.11,24.74,24.74,0,0,0,10.83-12.39l.18.08-.18-.08a24.8,24.8,0,0,0,1.16-16.4,16.11,16.11,0,0,0-9.12-10.79A15.2,15.2,0,0,0,478.75,235.16Z" fill="#ffffff"/><path d="M473.18,278.53a15,15,0,0,1-5.85-1.16c-9.27-3.87-12.93-16.3-8.17-27.73a25.15,25.15,0,0,1,11-12.6A15.9,15.9,0,0,1,494,247a25.26,25.26,0,0,1-1.18,16.62h0a25.19,25.19,0,0,1-11,12.59A18,18,0,0,1,473.18,278.53Zm5.57-43.37a17.53,17.53,0,0,0-8.31,2.25,24.74,24.74,0,0,0-10.83,12.39c-4.67,11.22-1.1,23.41,7.95,27.18a16.15,16.15,0,0,0,14.08-1.11,24.74,24.74,0,0,0,10.83-12.39l.18.08-.18-.08a24.8,24.8,0,0,0,1.16-16.4,16.11,16.11,0,0,0-9.12-10.79A15.2,15.2,0,0,0,478.75,235.16Z" opacity="0.2" style="isolation:isolate"/><path d="M377.63,185.05c.06-4.06-.06-17-3.64-17.73-2.38-.46-4,.91-4.73,3.91-3.46-4.23-7.53-7.36-11.66-6.5-11.31,2.35-8.05,13.44,2.11,33L379,188.19S378.54,187,377.63,185.05Z" fill="#ffffff"/><path d="M525.7,345.4s-.69,1.17-1.67,3.07c-3.36,2.51-13.37,10.36-11.74,13.59,1.08,2.15,3.09,2.59,5.89,1.43-1.25,5.32-1.26,10.45,1.93,13.21,8.79,7.56,15.57-1.78,24.88-21.72Z" fill="#ffffff"/><rect x="537.27" y="268.42" width="16.63" height="10.67" transform="translate(-64.82 275.5) rotate(-26.81)" fill="#ffffff"/><rect x="537.27" y="268.42" width="16.63" height="10.67" transform="translate(-64.82 275.5) rotate(-26.81)" opacity="0.2" style="isolation:isolate"/><path d="M494.65,316.23a1.07,1.07,0,1,1,1.17-1,1,1,0,0,1-.06.25A.94.94,0,0,1,494.65,316.23Z" fill="#ffffff"/><path d="M493.17,320.33a1.05,1.05,0,0,1-.3-1.47,1.07,1.07,0,0,1,1-.47,1.06,1.06,0,0,1-.7,1.94Z" fill="#ffffff"/><path d="M491.69,324.42a1,1,0,0,1-1-1.15,1.06,1.06,0,1,1,2.11.19.75.75,0,0,1,0,.26A.94.94,0,0,1,491.69,324.42Z" fill="#ffffff"/><path d="M496.13,319.09a1.06,1.06,0,1,1,1.15-1,1.22,1.22,0,0,1-.06.26A.93.93,0,0,1,496.13,319.09Z" fill="#ffffff"/><path d="M494.65,323.17a1.06,1.06,0,1,1,1.15-1,1.31,1.31,0,0,1-.06.27A.91.91,0,0,1,494.65,323.17Z" fill="#ffffff"/><path d="M493.17,327.28a.94.94,0,0,1-.4-1.25.82.82,0,0,1,1.62.19.83.83,0,0,1-.13.34A.92.92,0,0,1,493.17,327.28Z" fill="#ffffff"/></svg>